<svg version="1.1" xmlns="http://www.w3.org/2000/svg" viewBox="0 0 847.6250749312342 851.3508837586176" width="847.6250749312342" height="851.3508837586176" class="excalidraw-svg">
  <!-- svg-source:excalidraw -->
  
  <defs>
    <style class="style-fonts">
      @font-face {
        font-family: "Virgil";
        src: url("https://excalidraw.com/Virgil.woff2");
      }
      @font-face {
        font-family: "Cascadia";
        src: url("https://excalidraw.com/Cascadia.woff2");
      }
      @font-face {
        font-family: "Assistant";
        src: url("https://excalidraw.com/Assistant-Regular.woff2");
      }
    </style>
    
  </defs>
  <rect x="0" y="0" width="847.6250749312342" height="851.3508837586176" fill="#ffffff"/><g stroke-linecap="round" transform="translate(13.82819993123411 13.15460811088792) rotate(0 411.8984375 411.8984375)"><path d="M32 0 C211.13 0, 390.35 -0.89, 791.8 0 M32 0 C278.18 -0.29, 524.82 -0.47, 791.8 0 M791.8 0 C812.45 1.8, 822.64 9.22, 823.8 32 M791.8 0 C813.83 0.25, 821.68 11.85, 823.8 32 M823.8 32 C822.4 269.86, 822.9 508.26, 823.8 791.8 M823.8 32 C825.35 302.16, 825.19 572.3, 823.8 791.8 M823.8 791.8 C825.13 814.87, 813.47 822.25, 791.8 823.8 M823.8 791.8 C825 815.17, 811.12 822.68, 791.8 823.8 M791.8 823.8 C627.44 824.87, 463.31 824.76, 32 823.8 M791.8 823.8 C599.85 826.01, 407.1 825.79, 32 823.8 M32 823.8 C11.14 824.42, -0.91 812.4, 0 791.8 M32 823.8 C11.97 823.17, -1.44 812.45, 0 791.8 M0 791.8 C-0.79 562.16, -1.22 331.24, 0 32 M0 791.8 C2.96 541.3, 2.48 289.97, 0 32 M0 32 C-1.57 10.01, 11.06 -1.82, 32 0 M0 32 C-1.02 9.82, 10.93 1.91, 32 0" stroke="#1e1e1e" stroke-width="2" fill="none"/></g><g stroke-linecap="round"><g transform="translate(422.6719499312341 11.22101436088792) rotate(0 0.30078125 414.91796875)"><path d="M0.25 -0.12 C0.16 138.26, -0.47 691.79, -0.48 830.13 M-1.08 -1.22 C-0.82 136.78, 1.61 689.41, 1.66 828.16" stroke="#1e1e1e" stroke-width="2" fill="none"/></g></g><mask/><g stroke-linecap="round"><g transform="translate(11.08601243123411 420.0296081108879) rotate(0 411.9296875 0.271484375)"><path d="M-1.09 0.29 C136.11 0.42, 686.14 0.63, 823.45 0.62 M0.54 -0.6 C137.53 -0.25, 684.86 1.87, 822.28 2.19" stroke="#1e1e1e" stroke-width="2" fill="none"/></g></g><mask/><g stroke-linecap="round"><g transform="translate(330.2683932825923 391.8762431934848) rotate(0 0 30)"><path d="M-0.41 0.07 C-0.42 9.97, -1.05 49.83, -1.12 59.67 M1.57 -0.93 C2.01 9.11, 1 50.88, 1 61.03" stroke="#1e1e1e" stroke-width="0.5" fill="none"/></g></g><mask/><g stroke-linecap="round"><g transform="translate(230.26839328259229 391.8762431934848) rotate(0 0 30)"><path d="M-1.12 -0.33 C-1.2 9.51, -0.97 48.91, -0.85 59.14 M0.49 -1.55 C0.83 8.42, 1.73 50.09, 1.41 60.23" stroke="#1e1e1e" stroke-width="0.5" fill="none"/></g></g><mask/><g stroke-linecap="round"><g transform="translate(130.26839328259229 391.8762431934848) rotate(0 0 30)"><path d="M-0.85 -0.86 C-0.73 9.38, -0.43 51.08, -0.41 61.08 M0.9 1.31 C0.93 11.26, -1.11 49.74, -1.57 59.52" stroke="#1e1e1e" stroke-width="0.5" fill="none"/></g></g><mask/><g stroke-linecap="round"><g transform="translate(530.2683932825923 391.8762431934848) rotate(0 0 30)"><path d="M-0.41 1.08 C-0.38 11.08, -0.82 49.29, -0.69 59.13 M1.58 0.6 C2.07 10.8, 1.95 50.06, 1.66 60.21" stroke="#1e1e1e" stroke-width="0.5" fill="none"/></g></g><mask/><g stroke-linecap="round"><g transform="translate(630.2683932825923 391.8762431934848) rotate(0 0 30)"><path d="M-0.69 -0.87 C-0.56 8.97, 0.43 49.88, 0.37 60.13 M1.14 1.29 C1.18 11.86, -0.4 52.18, -0.39 61.74" stroke="#1e1e1e" stroke-width="0.5" fill="none"/></g></g><mask/><g stroke-linecap="round"><g transform="translate(730.2683932825923 391.8762431934848) rotate(0 0 30)"><path d="M0.37 0.13 C0.3 10.38, -1.07 50.74, -1.1 60.62 M-0.9 -0.85 C-0.55 9.12, 0.97 48.62, 1.03 58.82" stroke="#1e1e1e" stroke-width="0.5" fill="none"/></g></g><mask/><g stroke-linecap="round"><g transform="translate(390.2683932825923 311.8762431934848) rotate(0 40 0)"><path d="M-1.1 0.62 C12.19 0.49, 66.64 -0.58, 80.16 -0.63 M0.52 -0.11 C13.64 -0.1, 66.17 0.25, 79.29 0.57" stroke="#1e1e1e" stroke-width="0.5" fill="none"/></g></g><mask/><g stroke-linecap="round"><g transform="translate(390.2683932825923 211.8762431934848) rotate(0 40 0)"><path d="M0.16 -0.63 C13.68 -0.69, 66.7 0.03, 80.01 0.31 M-1.22 1.65 C12.24 1.16, 65.66 -1.26, 79.07 -1.65" stroke="#1e1e1e" stroke-width="0.5" fill="none"/></g></g><mask/><g stroke-linecap="round"><g transform="translate(390.2683932825923 111.87624319348481) rotate(0 40 0)"><path d="M0.01 0.31 C13.32 0.59, 66.53 1.01, 80 1.07 M-1.44 -0.57 C11.69 -0.54, 65.39 -0.37, 79.04 -0.49" stroke="#1e1e1e" stroke-width="0.5" fill="none"/></g></g><mask/><g stroke-linecap="round"><g transform="translate(390.2683932825923 511.8762431934848) rotate(0 40 0)"><path d="M0 1.07 C13.46 1.13, 67.38 0.83, 80.81 0.67 M-1.47 0.58 C11.91 0.27, 66.69 -1.25, 80.28 -1.11" stroke="#1e1e1e" stroke-width="0.5" fill="none"/></g></g><mask/><g stroke-linecap="round"><g transform="translate(390.2683932825923 611.8762431934848) rotate(0 40 0)"><path d="M0.81 0.67 C14.24 0.5, 67.32 0.13, 80.57 0.06 M-0.23 -0.03 C13.09 0.53, 66.6 1.34, 79.92 1.63" stroke="#1e1e1e" stroke-width="0.5" fill="none"/></g></g><mask/><g stroke-linecap="round"><g transform="translate(390.2683932825923 711.8762431934848) rotate(0 40 0)"><path d="M0.57 0.06 C13.82 -0.01, 67.1 0.2, 80.31 0.27 M-0.59 -0.95 C12.46 -1.46, 66.26 -1.61, 79.53 -1.71" stroke="#1e1e1e" stroke-width="0.5" fill="none"/></g></g><mask/></svg>